<svg width="54" height="54" viewBox="0 0 54 54" fill="none" xmlns="http://www.w3.org/2000/svg">
<path d="M30.1726 27L39.8476 17.3475C40.2713 16.9238 40.5093 16.3492 40.5093 15.75C40.5093 15.1508 40.2713 14.5762 39.8476 14.1525C39.4239 13.7288 38.8493 13.4908 38.2501 13.4908C37.6509 13.4908 37.0763 13.7288 36.6526 14.1525L27.0001 23.8275L17.3476 14.1525C16.9239 13.7288 16.3493 13.4908 15.7501 13.4908C15.1509 13.4908 14.5763 13.7288 14.1526 14.1525C13.7289 14.5762 13.4909 15.1508 13.4909 15.75C13.4909 16.3492 13.7289 16.9238 14.1526 17.3475L23.8276 27L14.1526 36.6525C13.9417 36.8617 13.7743 37.1105 13.6601 37.3847C13.5459 37.6589 13.4871 37.953 13.4871 38.25C13.4871 38.547 13.5459 38.8411 13.6601 39.1153C13.7743 39.3895 13.9417 39.6383 14.1526 39.8475C14.3618 40.0584 14.6106 40.2258 14.8848 40.34C15.159 40.4542 15.4531 40.513 15.7501 40.513C16.0471 40.513 16.3412 40.4542 16.6154 40.34C16.8896 40.2258 17.1384 40.0584 17.3476 39.8475L27.0001 30.1725L36.6526 39.8475C36.8618 40.0584 37.1106 40.2258 37.3848 40.34C37.659 40.4542 37.9531 40.513 38.2501 40.513C38.5471 40.513 38.8412 40.4542 39.1154 40.34C39.3896 40.2258 39.6384 40.0584 39.8476 39.8475C40.0585 39.6383 40.2259 39.3895 40.3401 39.1153C40.4543 38.8411 40.5132 38.547 40.5132 38.25C40.5132 37.953 40.4543 37.6589 40.3401 37.3847C40.2259 37.1105 40.0585 36.8617 39.8476 36.6525L30.1726 27Z" fill="white"/>
</svg>
