<svg width="33" height="33" viewBox="0 0 33 33" fill="none" xmlns="http://www.w3.org/2000/svg">
<g clip-path="url(#clip0_55_6)">
<path d="M25.6667 27.5H5.50002V7.33333H17.6184L19.4517 5.5H5.50002C5.01379 5.5 4.54747 5.69315 4.20366 6.03697C3.85984 6.38079 3.66669 6.8471 3.66669 7.33333V27.5C3.66669 27.9862 3.85984 28.4525 4.20366 28.7964C4.54747 29.1402 5.01379 29.3333 5.50002 29.3333H25.6667C26.1529 29.3333 26.6192 29.1402 26.963 28.7964C27.3069 28.4525 27.5 27.9862 27.5 27.5V13.75L25.6667 15.5833V27.5Z" fill="#1D8780"/>
<path d="M30.7358 5.35333L27.6466 2.26417C27.5096 2.12669 27.3467 2.01762 27.1674 1.9432C26.988 1.86878 26.7958 1.83047 26.6016 1.83047C26.4075 1.83047 26.2153 1.86878 26.0359 1.9432C25.8566 2.01762 25.6937 2.12669 25.5566 2.26417L12.9891 14.905L11.9716 19.3142C11.9283 19.5279 11.9329 19.7486 11.985 19.9603C12.0371 20.1721 12.1355 20.3697 12.2732 20.5388C12.4108 20.708 12.5842 20.8446 12.7809 20.9387C12.9776 21.0329 13.1927 21.0823 13.4108 21.0833C13.5235 21.0957 13.6373 21.0957 13.75 21.0833L18.1958 20.1025L30.7358 7.44333C30.8733 7.30624 30.9824 7.14336 31.0568 6.96404C31.1312 6.78472 31.1695 6.59248 31.1695 6.39833C31.1695 6.20418 31.1312 6.01194 31.0568 5.83262C30.9824 5.6533 30.8733 5.49043 30.7358 5.35333V5.35333ZM17.2425 18.4067L13.8875 19.1492L14.6666 15.8217L24.1266 6.2975L26.7116 8.8825L17.2425 18.4067ZM27.7475 7.84667L25.1625 5.26167L26.5833 3.81333L29.1866 6.41667L27.7475 7.84667Z" fill="#1D8780"/>
</g>
<defs>
<clipPath id="clip0_55_6">
<rect width="33" height="33" fill="white"/>
</clipPath>
</defs>
</svg>
