<svg width="18" height="18" viewBox="0 0 18 18" fill="none" xmlns="http://www.w3.org/2000/svg">
<path d="M15 15H3C2.60218 15 2.22064 14.842 1.93934 14.5607C1.65804 14.2794 1.5 13.8978 1.5 13.5V4.43475C1.51682 4.04834 1.68226 3.68337 1.96176 3.41603C2.24126 3.14868 2.61323 2.99963 3 3H15C15.3978 3 15.7794 3.15804 16.0607 3.43934C16.342 3.72065 16.5 4.10218 16.5 4.5V13.5C16.5 13.8978 16.342 14.2794 16.0607 14.5607C15.7794 14.842 15.3978 15 15 15ZM3 5.901V13.5H15V5.901L9 9.9L3 5.901ZM3.6 4.5L9 8.1L14.4 4.5H3.6Z" fill="#262626"/>
</svg>
