<svg width="18" height="18" viewBox="0 0 18 18" fill="none" xmlns="http://www.w3.org/2000/svg">
<g clip-path="url(#clip0_9_15)">
<path d="M9 1.5C13.1423 1.5 16.5 4.85775 16.5 9C16.5 13.1423 13.1423 16.5 9 16.5C4.85775 16.5 1.5 13.1423 1.5 9C1.5 4.85775 4.85775 1.5 9 1.5ZM9 12C7.35 12 5.88825 12.621 4.92375 13.4025C6.03166 14.4312 7.48815 15.002 9 15C10.5119 15.002 11.9683 14.4312 13.0763 13.4025C12.1118 12.6218 10.6493 12 9 12ZM9 3C7.92133 2.99979 6.86256 3.29037 5.93511 3.84116C5.00767 4.39195 4.24586 5.18258 3.72986 6.12982C3.21387 7.07706 2.96277 8.14589 3.00301 9.22381C3.04325 10.3017 3.37332 11.3489 3.9585 12.255C5.19525 11.244 7.00125 10.5 9 10.5C10.9988 10.5 12.8048 11.244 14.0415 12.255C14.6267 11.3489 14.9568 10.3017 14.997 9.22381C15.0372 8.14589 14.7861 7.07706 14.2701 6.12982C13.7541 5.18258 12.9923 4.39195 12.0649 3.84116C11.1374 3.29037 10.0787 2.99979 9 3ZM9 3.75C9.79565 3.75 10.5587 4.06607 11.1213 4.62868C11.6839 5.19129 12 5.95435 12 6.75C12 7.54565 11.6839 8.30871 11.1213 8.87132C10.5587 9.43393 9.79565 9.75 9 9.75C8.20435 9.75 7.44129 9.43393 6.87868 8.87132C6.31607 8.30871 6 7.54565 6 6.75C6 5.95435 6.31607 5.19129 6.87868 4.62868C7.44129 4.06607 8.20435 3.75 9 3.75ZM9 5.25C8.60218 5.25 8.22065 5.40804 7.93934 5.68934C7.65804 5.97064 7.5 6.35218 7.5 6.75C7.5 7.14783 7.65804 7.52936 7.93934 7.81066C8.22065 8.09197 8.60218 8.25 9 8.25C9.39783 8.25 9.77936 8.09197 10.0607 7.81066C10.342 7.52936 10.5 7.14783 10.5 6.75C10.5 6.35218 10.342 5.97064 10.0607 5.68934C9.77936 5.40804 9.39783 5.25 9 5.25Z" fill="#262626"/>
</g>
<defs>
<clipPath id="clip0_9_15">
<rect width="18" height="18" fill="white"/>
</clipPath>
</defs>
</svg>
