<svg width="4" height="4" viewBox="0 0 4 4" fill="none" xmlns="http://www.w3.org/2000/svg">
<path d="M2 0.666626C2.17682 0.666626 2.34639 0.736864 2.47141 0.861888C2.59643 0.986912 2.66667 1.15648 2.66667 1.33329C2.66667 1.5101 2.59643 1.67967 2.47141 1.8047C2.34639 1.92972 2.17682 1.99996 2 1.99996C1.82319 1.99996 1.65362 1.92972 1.5286 1.8047C1.40358 1.67967 1.33334 1.5101 1.33334 1.33329C1.33334 1.15648 1.40358 0.986912 1.5286 0.861888C1.65362 0.736864 1.82319 0.666626 2 0.666626V0.666626ZM2 3.33329C2 3.33329 3.33334 3.33329 3.33334 2.99996C3.33334 2.59996 2.68334 2.16663 2 2.16663C1.31667 2.16663 0.666672 2.59996 0.666672 2.99996C0.666672 3.33329 2 3.33329 2 3.33329Z" fill="#1D8780"/>
</svg>
